<svg xmlns="http://www.w3.org/2000/svg" id="Layer_1" style="enable-background:new 0 0 2239.1 2239.1" viewBox="0 0 2239.1 2239.1">
  <style>
    .st0{opacity:0.15;} .st1{fill:url(#SVGID_1_);} .st2{fill:url(#SVGID_2_);} .st3{fill:url(#SVGID_3_);} .st4{fill:url(#SVGID_4_);} .st5{fill:url(#SVGID_5_);} .st6{fill:url(#SVGID_6_);} .st7{fill:url(#SVGID_7_);} .st8{fill:url(#SVGID_8_);} .st9{fill:url(#SVGID_9_);} .st10{fill:url(#SVGID_10_);} .st11{fill:url(#SVGID_11_);} .st12{fill:url(#SVGID_12_);} .st13{fill:url(#SVGID_13_);} .st14{fill:url(#SVGID_14_);} .st15{fill:url(#SVGID_15_);} .st16{fill:url(#SVGID_16_);} .st17{fill:#CA47E0;} .st18{fill:#C153E3;} .st19{fill:#9972E0;} .st20{fill:#AC63E0;} .st21{fill:#C44BE0;} .st22{fill:#A769E1;} .st23{fill:#FFFFFF;} .st24{opacity:0.35;fill:#FFFFFF;} .st25{fill:#717A89;} .st26{fill:#231F20;}
  </style>
  <g class="st0">
    <linearGradient id="SVGID_1_" x1="697.7631" x2="1541.3281" y1="1018.2731" y2="174.7082" gradientUnits="userSpaceOnUse">
      <stop offset="0" style="stop-color:#737DDB"/>
      <stop offset="1" style="stop-color:#E12CE1"/>
    </linearGradient>
    <path d="M1119.5 1193c-80.5 0-158.6-15.8-232.2-46.9-71-30-134.8-73.1-189.6-127.8C643 963.5 600 899.7 569.9 828.7 538.8 755.2 523 677 523 596.5s15.8-158.6 46.9-232.2c30-71 73.1-134.8 127.8-189.6 54.8-54.8 118.6-97.8 189.6-127.8C960.9 15.8 1039 0 1119.5 0s158.6 15.8 232.2 46.9c71 30 134.8 73.1 189.6 127.8 54.8 54.8 97.8 118.6 127.8 189.6 31.1 73.5 46.9 151.7 46.9 232.2s-15.8 158.6-46.9 232.2c-30 71-73.1 134.8-127.8 189.6-54.8 54.8-118.6 97.8-189.6 127.8-73.5 31.1-151.6 46.9-232.2 46.9zm0-1192c-80.4 0-158.4 15.7-231.8 46.8-70.9 30-134.6 72.9-189.3 127.6-54.7 54.7-97.6 118.4-127.6 189.3-31.1 73.4-46.8 151.4-46.8 231.8s15.7 158.4 46.8 231.8c30 70.9 72.9 134.6 127.6 189.3 54.7 54.7 118.4 97.6 189.3 127.6 73.4 31.1 151.4 46.8 231.8 46.8s158.4-15.7 231.8-46.8c70.9-30 134.6-72.9 189.3-127.6 54.7-54.7 97.6-118.4 127.6-189.3 31.1-73.4 46.8-151.4 46.8-231.8s-15.7-158.4-46.8-231.8c-30-70.9-72.9-134.6-127.6-189.3-54.7-54.7-118.4-97.6-189.3-127.6C1277.9 16.7 1199.9 1 1119.5 1z" class="st1"/>
    <linearGradient id="SVGID_2_" x1="697.7632" x2="1541.328" y1="2064.3826" y2="1220.818" gradientUnits="userSpaceOnUse">
      <stop offset="0" style="stop-color:#737DDB"/>
      <stop offset="1" style="stop-color:#E12CE1"/>
    </linearGradient>
    <path d="M1119.5 2239.1c-80.5 0-158.6-15.8-232.2-46.9-71-30-134.8-73.1-189.6-127.8s-97.8-118.6-127.8-189.6c-31.1-73.5-46.9-151.7-46.9-232.2s15.8-158.6 46.9-232.2c30-71 73.1-134.8 127.8-189.6 54.8-54.8 118.6-97.8 189.6-127.8 73.5-31.1 151.7-46.9 232.2-46.9s158.6 15.8 232.2 46.9c71 30 134.8 73.1 189.6 127.8 54.8 54.8 97.8 118.6 127.8 189.6 31.1 73.5 46.9 151.7 46.9 232.2s-15.8 158.6-46.9 232.2c-30 71-73.1 134.8-127.8 189.6s-118.6 97.8-189.6 127.8c-73.5 31.1-151.6 46.9-232.2 46.9zm0-1192c-80.4 0-158.4 15.7-231.8 46.8-70.9 30-134.6 72.9-189.3 127.6-54.7 54.7-97.6 118.4-127.6 189.3-31.1 73.4-46.8 151.4-46.8 231.8s15.7 158.4 46.8 231.8c30 70.9 72.9 134.6 127.6 189.3 54.7 54.7 118.4 97.6 189.3 127.6 73.4 31.1 151.4 46.8 231.8 46.8s158.4-15.7 231.8-46.8c70.9-30 134.6-72.9 189.3-127.6 54.7-54.7 97.6-118.4 127.6-189.3 31.1-73.4 46.8-151.4 46.8-231.8s-15.7-158.4-46.8-231.8c-30-70.9-72.9-134.6-127.6-189.3-54.7-54.7-118.4-97.6-189.3-127.6-73.4-31-151.4-46.8-231.8-46.8z" class="st2"/>
    <linearGradient id="SVGID_3_" x1="1220.8182" x2="2064.3833" y1="1541.3282" y2="697.763" gradientUnits="userSpaceOnUse">
      <stop offset="0" style="stop-color:#737DDB"/>
      <stop offset="1" style="stop-color:#E12CE1"/>
    </linearGradient>
    <path d="M1642.6 1716c-80.5 0-158.6-15.8-232.2-46.9-71-30-134.8-73.1-189.6-127.8s-97.8-118.6-127.8-189.6c-31.1-73.5-46.9-151.7-46.9-232.2s15.8-158.6 46.9-232.2c30-71 73.1-134.8 127.8-189.6s118.6-97.8 189.6-127.8c73.5-31.1 151.7-46.9 232.2-46.9s158.6 15.8 232.2 46.9c71 30 134.8 73.1 189.6 127.8s97.8 118.6 127.8 189.6c31.1 73.5 46.9 151.7 46.9 232.2s-15.8 158.6-46.9 232.2c-30 71-73.1 134.8-127.8 189.6s-118.6 97.8-189.6 127.8c-73.6 31.2-151.7 46.9-232.2 46.9zm0-1191.9c-80.4 0-158.4 15.7-231.8 46.8-70.9 30-134.6 72.9-189.3 127.6-54.7 54.7-97.6 118.4-127.6 189.3-31.1 73.4-46.8 151.4-46.8 231.8s15.7 158.4 46.8 231.8c30 70.9 72.9 134.6 127.6 189.3 54.7 54.7 118.4 97.6 189.3 127.6 73.4 31.1 151.4 46.8 231.8 46.8s158.4-15.7 231.8-46.8c70.9-30 134.6-72.9 189.3-127.6 54.7-54.7 97.6-118.4 127.6-189.3 31.1-73.4 46.8-151.4 46.8-231.8s-15.7-158.4-46.8-231.8c-30-70.9-72.9-134.6-127.6-189.3-54.7-54.7-118.4-97.6-189.3-127.6-73.4-31.1-151.4-46.8-231.8-46.8z" class="st3"/>
    <linearGradient id="SVGID_4_" x1="174.7078" x2="1018.273" y1="1541.3282" y2="697.763" gradientUnits="userSpaceOnUse">
      <stop offset="0" style="stop-color:#737DDB"/>
      <stop offset="1" style="stop-color:#E12CE1"/>
    </linearGradient>
    <path d="M596.5 1716c-80.5 0-158.6-15.8-232.2-46.9-71-30-134.8-73.1-189.6-127.8s-97.8-118.6-127.8-189.6C15.8 1278.2 0 1200.1 0 1119.5s15.8-158.6 46.9-232.2c30-71 73.1-134.8 127.8-189.6S293.3 600 364.3 569.9C437.8 538.8 516 523 596.5 523s158.6 15.8 232.2 46.9c71 30 134.8 73.1 189.6 127.8 54.8 54.8 97.8 118.6 127.8 189.6 31.1 73.5 46.9 151.7 46.9 232.2s-15.8 158.6-46.9 232.2c-30 71-73.1 134.8-127.8 189.6-54.8 54.8-118.6 97.8-189.6 127.8-73.6 31.2-151.7 46.9-232.2 46.9zm0-1191.9c-80.4 0-158.4 15.7-231.8 46.8-70.9 30-134.6 72.9-189.3 127.6-54.7 54.7-97.6 118.4-127.6 189.3C16.7 961.2 1 1039.2 1 1119.5s15.7 158.4 46.8 231.8c30 70.9 72.9 134.6 127.6 189.3 54.7 54.7 118.4 97.6 189.3 127.6 73.4 31.1 151.4 46.8 231.8 46.8s158.4-15.7 231.8-46.8c70.9-30 134.6-72.9 189.3-127.6 54.7-54.7 97.6-118.4 127.6-189.3 31.1-73.4 46.8-151.4 46.8-231.8s-15.7-158.4-46.8-231.8c-30-70.9-72.9-134.6-127.6-189.3-54.7-54.7-118.4-97.6-189.3-127.6-73.4-31-151.4-46.7-231.8-46.7z" class="st4"/>
    <g>
      <linearGradient id="SVGID_5_" x1="1067.619" x2="1911.1842" y1="1911.1837" y2="1067.6185" gradientUnits="userSpaceOnUse">
        <stop offset="0" style="stop-color:#737DDB"/>
        <stop offset="1" style="stop-color:#E12CE1"/>
      </linearGradient>
      <path d="M1489.4 2085.9c-77.5 0-153-14.7-224.5-43.7-74-30-140.4-74.1-197.3-131-56.9-56.9-101-123.3-131-197.3-29-71.5-43.7-147-43.7-224.5s14.7-153 43.7-224.5c30-74 74.1-140.4 131-197.3 56.9-56.9 123.3-101 197.3-131 71.5-29 147-43.7 224.5-43.7s153 14.7 224.5 43.7c74 30 140.4 74.1 197.3 131 56.9 56.9 101 123.3 131 197.3 29 71.5 43.7 147 43.7 224.5s-14.7 153-43.7 224.5c-30 74-74.1 140.4-131 197.3s-123.3 101-197.3 131c-71.5 29-147 43.7-224.5 43.7zm0-1192c-77.3 0-152.7 14.7-224.1 43.6-73.9 30-140.1 74-197 130.8-56.8 56.8-100.9 123.1-130.8 197-28.9 71.3-43.6 146.7-43.6 224.1 0 77.3 14.7 152.7 43.6 224.1 30 73.9 74 140.1 130.8 197 56.8 56.8 123.1 100.9 197 130.8 71.3 28.9 146.7 43.6 224.1 43.6 77.3 0 152.7-14.7 224.1-43.6 73.9-30 140.1-74 197-130.8s100.9-123.1 130.8-197c28.9-71.3 43.6-146.7 43.6-224.1 0-77.3-14.7-152.7-43.6-224.1-30-73.9-74-140.1-130.8-197-56.8-56.8-123.1-100.9-197-130.8-71.4-28.9-146.8-43.6-224.1-43.6z" class="st5"/>
      <g>
        <linearGradient id="SVGID_6_" x1="327.9069" x2="1171.4724" y1="1171.4727" y2="327.9072" gradientUnits="userSpaceOnUse">
          <stop offset="0" style="stop-color:#737DDB"/>
          <stop offset="1" style="stop-color:#E12CE1"/>
        </linearGradient>
        <path d="M749.7 1346.2c-77.5 0-153-14.7-224.5-43.7-74-30-140.4-74.1-197.3-131-56.9-56.9-101-123.3-131-197.3-29-71.5-43.7-147-43.7-224.5s14.7-153 43.7-224.5c30-74 74.1-140.4 131-197.3 56.9-56.9 123.3-101 197.3-131 71.5-29 147-43.7 224.5-43.7s153 14.7 224.5 43.7c74 30 140.4 74.1 197.3 131 56.9 56.9 101 123.3 131 197.3 29 71.5 43.7 147 43.7 224.5s-14.7 153-43.7 224.5c-30 74-74.1 140.4-131 197.3-56.9 56.9-123.3 101-197.3 131-71.5 29-147 43.7-224.5 43.7zm-421.1-175.4c56.8 56.8 123.1 100.9 197 130.8 71.3 28.9 146.7 43.6 224.1 43.6 77.3 0 152.7-14.7 224.1-43.6 73.9-30 140.1-74 197-130.8 56.8-56.8 100.9-123.1 130.8-197 28.9-71.3 43.6-146.7 43.6-224.1s-14.7-152.7-43.6-224.1c-30-73.9-74-140.1-130.8-197-56.8-56.8-123.1-100.9-197-130.8-71.3-28.9-146.7-43.6-224.1-43.6-77.3 0-152.7 14.7-224.1 43.6-73.9 30-140.1 74-197 130.8-56.8 56.8-100.9 123.1-130.8 197-28.9 71.3-43.6 146.7-43.6 224.1s14.7 152.7 43.6 224.1c30 73.8 74 140.1 130.8 197z" class="st6"/>
      </g>
    </g>
    <g>
      <linearGradient id="SVGID_7_" x1="327.907" x2="1171.4723" y1="1911.1837" y2="1067.6185" gradientUnits="userSpaceOnUse">
        <stop offset="0" style="stop-color:#737DDB"/>
        <stop offset="1" style="stop-color:#E12CE1"/>
      </linearGradient>
      <path d="M749.7 2085.9c-77.5 0-153-14.7-224.5-43.7-74-30-140.4-74.1-197.3-131s-101-123.3-131-197.3c-29-71.5-43.7-147-43.7-224.5s14.7-153 43.7-224.5c30-74 74.1-140.4 131-197.3 56.9-56.9 123.3-101 197.3-131 71.5-29 147-43.7 224.5-43.7s153 14.7 224.5 43.7c74 30 140.4 74.1 197.3 131 56.9 56.9 101 123.3 131 197.3 29 71.5 43.7 147 43.7 224.5s-14.7 153-43.7 224.5c-30 74-74.1 140.4-131 197.3s-123.3 101-197.3 131c-71.5 29-147 43.7-224.5 43.7zM328.3 1068l.4.4c-56.8 56.8-100.9 123.1-130.8 197-28.9 71.3-43.6 146.7-43.6 224.1 0 77.3 14.7 152.7 43.6 224.1 30 73.9 74 140.1 130.8 197s123.1 100.9 197 130.8c71.3 28.9 146.7 43.6 224.1 43.6 77.3 0 152.7-14.7 224.1-43.6 73.9-30 140.1-74 197-130.8s100.9-123.1 130.8-197c28.9-71.3 43.6-146.7 43.6-224.1 0-77.3-14.7-152.7-43.6-224.1-30-73.9-74-140.1-130.8-197-56.8-56.8-123.1-100.9-197-130.8-71.3-28.9-146.7-43.6-224.1-43.6-77.3 0-152.7 14.7-224.1 43.6-73.9 30-140.1 74-197 130.8l-.4-.4z" class="st7"/>
      <g>
        <linearGradient id="SVGID_8_" x1="1067.6189" x2="1911.1843" y1="1171.4727" y2="327.9072" gradientUnits="userSpaceOnUse">
          <stop offset="0" style="stop-color:#737DDB"/>
          <stop offset="1" style="stop-color:#E12CE1"/>
        </linearGradient>
        <path d="M1489.4 1346.2c-77.5 0-153-14.7-224.5-43.7-74-30-140.4-74.1-197.3-131-56.9-56.9-101-123.3-131-197.3-29-71.5-43.7-147-43.7-224.5s14.7-153 43.7-224.5c30-74 74.1-140.4 131-197.3 56.9-56.9 123.3-101 197.3-131 71.5-29 147-43.7 224.5-43.7s153 14.7 224.5 43.7c74 30 140.4 74.1 197.3 131 56.9 56.9 101 123.3 131 197.3 29 71.5 43.7 147 43.7 224.5s-14.7 153-43.7 224.5c-30 74-74.1 140.4-131 197.3-56.9 56.9-123.3 101-197.3 131-71.5 29-147 43.7-224.5 43.7zM1068 328.3l.4.4c-56.8 56.8-100.9 123.1-130.8 197C908.7 597 894 672.4 894 749.8s14.7 152.7 43.6 224.1c30 73.9 74 140.1 130.8 197 56.8 56.8 123.1 100.9 197 130.8 71.3 28.9 146.7 43.6 224.1 43.6 77.3 0 152.7-14.7 224.1-43.6 73.9-30 140.1-74 197-130.8 56.8-56.8 100.9-123.1 130.8-197 28.9-71.3 43.6-146.7 43.6-224.1s-14.7-152.7-43.6-224.1c-30-73.9-74-140.1-130.8-197-56.8-56.8-123.1-100.9-197-130.8-71.3-28.9-146.7-43.6-224.1-43.6-77.3 0-152.7 14.7-224.1 43.6-73.9 30-140.1 74-197 130.8l-.4-.4z" class="st8"/>
      </g>
    </g>
    <g>
      <linearGradient id="SVGID_9_" x1="880.4091" x2="1724.1851" y1="1051.3435" y2="207.5676" gradientUnits="userSpaceOnUse">
        <stop offset="0" style="stop-color:#737DDB"/>
        <stop offset="1" style="stop-color:#E12CE1"/>
      </linearGradient>
      <path d="M1302 1226.1c-70.9 0-140.8-12.7-208.1-37.8-75.5-28.1-143.1-70.2-201.2-125-56.1-53-100.8-115.6-133-186-32.2-70.5-50.2-145.3-53.5-222.3-3.5-79.8 9.1-158.5 37.2-233.9 28.1-75.5 70.2-143.1 125-201.2 53-56.1 115.6-100.8 186-133 70.5-32.2 145.3-50.2 222.3-53.5 79.8-3.4 158.5 9.1 233.9 37.2 75.5 28.1 143.1 70.2 201.2 125 56.1 53 100.8 115.6 133 186 32.2 70.5 50.2 145.3 53.5 222.3 3.5 79.8-9.1 158.5-37.2 233.9l-.5-.2.5.2c-28.1 75.5-70.2 143.1-125 201.2-53 56.1-115.6 100.8-186 133-70.5 32.2-145.3 50.2-222.3 53.5-8.6.4-17.2.6-25.8.6zm.6-1192.3c-8.6 0-17.2.2-25.8.6-76.9 3.3-151.6 21.3-221.9 53.4-70.3 32.1-132.8 76.8-185.7 132.8-54.7 57.9-96.7 125.5-124.8 200.8s-40.6 153.9-37.1 233.5c3.3 76.9 21.3 151.6 53.4 221.9s76.8 132.8 132.8 185.7c57.9 54.7 125.5 96.7 200.8 124.8 67.2 25 136.9 37.7 207.7 37.7 8.6 0 17.2-.2 25.8-.6 76.9-3.3 151.6-21.3 221.9-53.4 70.3-32.1 132.8-76.8 185.7-132.8 54.7-57.9 96.7-125.5 124.8-200.8 28.1-75.3 40.6-153.9 37.1-233.5-3.3-76.9-21.3-151.6-53.4-221.9s-76.8-132.8-132.8-185.7c-57.9-54.7-125.5-96.7-200.8-124.8-67.1-25.1-136.9-37.7-207.7-37.7z" class="st9"/>
      <g>
        <linearGradient id="SVGID_10_" x1="514.9061" x2="1358.6821" y1="2031.5239" y2="1187.7478" gradientUnits="userSpaceOnUse">
          <stop offset="0" style="stop-color:#737DDB"/>
          <stop offset="1" style="stop-color:#E12CE1"/>
        </linearGradient>
        <path d="M936.5 2206.3c-70.9 0-140.8-12.7-208.1-37.8-75.5-28.1-143.1-70.2-201.2-125-56.1-53-100.8-115.6-133-186-32.2-70.5-50.2-145.3-53.5-222.3-3.5-79.8 9.1-158.5 37.2-233.9 28.1-75.5 70.2-143.1 125-201.2 53-56.1 115.6-100.8 186-133 70.5-32.2 145.3-50.2 222.3-53.5 79.8-3.5 158.5 9.1 233.9 37.2 75.5 28.1 143.1 70.2 201.2 125 56.1 53 100.8 115.6 133 186 32.2 70.5 50.2 145.3 53.5 222.3 3.5 79.8-9.1 158.5-37.2 233.9-28.1 75.5-70.2 143.1-125 201.2-53 56.1-115.6 100.8-186 133s-145.3 50.2-222.3 53.5c-8.6.4-17.2.6-25.8.6zm.6-1192.3c-8.6 0-17.2.2-25.8.6-76.9 3.3-151.6 21.3-221.9 53.4-70.3 32.1-132.8 76.8-185.7 132.8-54.7 57.9-96.7 125.5-124.8 200.8-28.1 75.3-40.6 153.9-37.1 233.5 3.3 76.9 21.3 151.6 53.4 221.9 32.1 70.3 76.8 132.8 132.8 185.7 57.9 54.7 125.5 96.7 200.8 124.8 67.2 25 136.9 37.7 207.7 37.7 8.6 0 17.2-.2 25.8-.6 76.9-3.3 151.6-21.3 221.9-53.4 70.3-32.1 132.8-76.8 185.7-132.8 54.7-57.9 96.7-125.5 124.8-200.8s40.6-153.9 37.1-233.5c-3.3-76.9-21.3-151.6-53.4-221.9s-76.8-132.8-132.8-185.7c-57.9-54.7-125.5-96.7-200.8-124.8-67.1-25.1-136.9-37.7-207.7-37.7z" class="st10"/>
      </g>
    </g>
    <g>
      <linearGradient id="SVGID_11_" x1="1187.7479" x2="2031.5239" y1="1724.1852" y2="880.4091" gradientUnits="userSpaceOnUse">
        <stop offset="0" style="stop-color:#737DDB"/>
        <stop offset="1" style="stop-color:#E12CE1"/>
      </linearGradient>
      <path d="M1609.3 1899c-70.9 0-140.8-12.7-208.1-37.8-75.5-28.1-143.1-70.2-201.2-125-56.1-53-100.8-115.6-133-186-32.2-70.5-50.2-145.3-53.5-222.3-3.5-79.8 9.1-158.5 37.2-233.9 28.1-75.5 70.2-143.1 125-201.2 53-56.1 115.6-100.8 186-133 70.5-32.2 145.3-50.2 222.3-53.5 79.8-3.4 158.5 9.1 233.9 37.2s143.1 70.2 201.2 125c56.1 53 100.8 115.6 133 186 32.2 70.5 50.2 145.3 53.5 222.3 3.5 79.8-9.1 158.5-37.2 233.9-28.1 75.5-70.2 143.1-125 201.2-53 56.1-115.6 100.8-186 133s-145.3 50.2-222.3 53.5c-8.6.4-17.2.6-25.8.6zm.7-1192.4c-8.6 0-17.2.2-25.8.6-76.9 3.3-151.6 21.3-221.9 53.4-70.3 32.1-132.8 76.8-185.7 132.8-54.7 57.9-96.7 125.5-124.8 200.8-28.1 75.3-40.6 153.9-37.1 233.5 3.3 76.9 21.3 151.6 53.4 221.9 32.1 70.3 76.8 132.8 132.8 185.7 57.9 54.7 125.5 96.7 200.8 124.8 67.2 25 136.9 37.7 207.7 37.7 8.6 0 17.2-.2 25.8-.6 76.9-3.3 151.6-21.3 221.9-53.4 70.3-32.1 132.8-76.8 185.7-132.8 54.7-57.9 96.7-125.5 124.8-200.8s40.6-153.9 37.1-233.5c-3.3-76.9-21.3-151.6-53.4-221.9-32.1-70.4-76.8-132.8-132.8-185.7-57.9-54.7-125.5-96.7-200.8-124.8-67.2-25-136.9-37.7-207.7-37.7z" class="st11"/>
      <g>
        <linearGradient id="SVGID_12_" x1="207.5671" x2="1051.3433" y1="1358.6821" y2="514.906" gradientUnits="userSpaceOnUse">
          <stop offset="0" style="stop-color:#737DDB"/>
          <stop offset="1" style="stop-color:#E12CE1"/>
        </linearGradient>
        <path d="M629.1 1533.5c-70.9 0-140.8-12.7-208.1-37.8-75.5-28.1-143.1-70.2-201.2-125-56.1-53-100.8-115.6-133-186s-50.2-145.3-53.5-222.3c-3.5-79.8 9.1-158.5 37.2-233.9 28.1-75.5 70.2-143.1 125-201.2 53-56.1 115.6-100.8 186-133 70.5-32.2 145.3-50.2 222.3-53.5 79.8-3.4 158.5 9.1 233.9 37.2 75.5 28.1 143.1 70.2 201.2 125 56.1 53 100.8 115.6 133 186 32.2 70.5 50.2 145.3 53.5 222.3 3.5 79.8-9.1 158.5-37.2 233.9-28.1 75.5-70.2 143.1-125 201.2-53 56.1-115.6 100.8-186 133S732 1529.6 655 1532.9c-8.7.4-17.3.6-25.9.6zm-207.7-38.7c75.3 28.1 153.9 40.6 233.5 37.1 76.9-3.3 151.6-21.3 221.9-53.4 70.3-32.1 132.8-76.8 185.7-132.8 54.7-57.9 96.7-125.5 124.8-200.8s40.6-153.9 37.1-233.5c-3.3-76.9-21.3-151.6-53.4-221.9s-76.8-132.8-132.8-185.7c-57.9-54.7-125.5-96.7-200.8-124.8-75.3-28.1-153.9-40.6-233.5-37.1C527.1 345 452.4 363 382 395.1c-70.3 32.1-132.8 76.8-185.7 132.8-54.7 57.9-96.7 125.5-124.8 200.8C43.4 804 30.9 882.6 34.4 962.2c3.3 76.9 21.3 151.6 53.4 221.9 32.1 70.4 76.8 132.8 132.8 185.7 57.9 54.9 125.5 96.9 200.8 125z" class="st12"/>
      </g>
    </g>
    <g>
      <linearGradient id="SVGID_13_" x1="914.9656" x2="1758.7678" y1="2017.2174" y2="1173.4152" gradientUnits="userSpaceOnUse">
        <stop offset="0" style="stop-color:#737DDB"/>
        <stop offset="1" style="stop-color:#E12CE1"/>
      </linearGradient>
      <path d="M1337 2192c-71.2 0-141.3-12.7-208.5-37.7-72.6-27.1-138.2-67.2-195.1-119.3-58.8-54-105.6-118.5-139.1-191.7-33.5-73.2-51.6-150.9-53.8-230.7-2.2-77.1 10.4-153 37.5-225.6s67.2-138.2 119.3-195.1c54-58.8 118.5-105.6 191.7-139.1 73.2-33.5 150.9-51.6 230.7-53.8 77.1-2.2 153 10.4 225.6 37.5s138.2 67.2 195.1 119.3c58.8 54 105.6 118.5 139.1 191.7 33.5 73.2 51.6 150.9 53.8 230.7 2.2 77.1-10.4 153-37.5 225.6s-67.2 138.2-119.3 195.1c-54 58.8-118.5 105.6-191.7 139.1-73.2 33.5-150.9 51.6-230.7 53.8-5.8.1-11.5.2-17.1.2zm-.2-1192.3c-5.7 0-11.3.1-17 .2-79.7 2.3-157.2 20.3-230.3 53.7-73.1 33.4-137.5 80.1-191.4 138.9-52 56.7-92.1 122.3-119.1 194.7s-39.6 148.2-37.4 225.2c2.3 79.7 20.3 157.2 53.7 230.3 33.4 73.1 80.1 137.5 138.9 191.4 56.7 52 122.3 92.1 194.7 119.1 72.5 27 148.2 39.6 225.2 37.4 79.7-2.3 157.2-20.3 230.3-53.7 73.1-33.4 137.5-80.1 191.4-138.9 52-56.7 92.1-122.3 119.1-194.7 27-72.5 39.6-148.2 37.4-225.2-2.3-79.7-20.3-157.2-53.7-230.3-33.4-73.1-80.1-137.5-138.9-191.4-56.7-52-122.3-92.1-194.7-119.1-67.2-25-137.1-37.6-208.2-37.6z" class="st13"/>
      <g>
        <linearGradient id="SVGID_14_" x1="480.3232" x2="1324.1254" y1="1065.6759" y2="221.8738" gradientUnits="userSpaceOnUse">
          <stop offset="0" style="stop-color:#737DDB"/>
          <stop offset="1" style="stop-color:#E12CE1"/>
        </linearGradient>
        <path d="M902.3 1240.4c-71.2 0-141.3-12.7-208.5-37.7-72.6-27.1-138.2-67.2-195.1-119.3-58.8-54-105.6-118.5-139.1-191.7-33.5-73.2-51.6-150.9-53.8-230.7-2.2-77.1 10.4-153 37.5-225.6s67.2-138.2 119.3-195.1c54-58.8 118.5-105.6 191.7-139.1C727.5 67.7 805.2 49.6 885 47.4c77.1-2.2 153 10.4 225.6 37.5s138.2 67.2 195.1 119.3c58.8 54 105.6 118.5 139.1 191.7 33.5 73.2 51.6 150.9 53.8 230.7 2.2 77.1-10.4 153-37.5 225.6s-67.2 138.2-119.3 195.1c-54 58.8-118.5 105.6-191.7 139.1-73.2 33.5-150.9 51.6-230.7 53.8-5.7.1-11.4.2-17.1.2zm-.2-1192.3c-5.7 0-11.3.1-17 .2-79.7 2.3-157.2 20.3-230.3 53.7-73.1 33.4-137.5 80.1-191.4 138.9-52 56.7-92.1 122.3-119.1 194.7s-39.6 148.2-37.4 225.2c2.3 79.7 20.3 157.2 53.7 230.3 33.4 73.1 80.1 137.5 138.9 191.4 56.7 52 122.3 92.1 194.7 119.1 67.1 25 137.1 37.7 208.2 37.7 5.7 0 11.3-.1 17-.2 79.7-2.3 157.2-20.3 230.3-53.7 73.1-33.4 137.5-80.1 191.4-138.9 52-56.7 92.1-122.3 119.1-194.7 27-72.5 39.6-148.2 37.4-225.2-2.3-79.7-20.3-157.2-53.7-230.3-33.4-73.1-80.1-137.5-138.9-191.4-56.7-52-122.3-92.1-194.7-119.1-67.1-25-137.1-37.7-208.2-37.7z" class="st14"/>
      </g>
    </g>
    <g>
      <linearGradient id="SVGID_15_" x1="221.8733" x2="1065.6761" y1="1758.7683" y2="914.9655" gradientUnits="userSpaceOnUse">
        <stop offset="0" style="stop-color:#737DDB"/>
        <stop offset="1" style="stop-color:#E12CE1"/>
      </linearGradient>
      <path d="M643.9 1933.5c-71.2 0-141.3-12.7-208.5-37.7-72.6-27.1-138.2-67.2-195.1-119.3-58.8-54-105.6-118.5-139.1-191.7s-51.6-151-53.8-230.8c-2.2-77.1 10.4-153 37.5-225.6s67.2-138.2 119.3-195.1c54-58.8 118.5-105.6 191.7-139.1 73.2-33.5 150.9-51.6 230.7-53.8 77.1-2.2 153 10.4 225.6 37.5s138.2 67.2 195.1 119.3c58.8 54 105.6 118.5 139.1 191.7s51.6 150.9 53.8 230.7c2.2 77.1-10.4 153-37.5 225.6s-67.2 138.2-119.3 195.1c-54 58.8-118.5 105.6-191.7 139.1S740.8 1931 661 1933.2c-5.8.2-11.4.3-17.1.3zM396.2 794.8l.2.5c-73.1 33.4-137.5 80.1-191.4 138.9-52 56.7-92.1 122.3-119.1 194.7-27 72.5-39.6 148.2-37.4 225.2 2.3 79.7 20.3 157.2 53.7 230.3 33.4 73.1 80.1 137.5 138.9 191.4 56.7 52 122.3 92.1 194.7 119.1 67.1 25 137.1 37.7 208.2 37.7 5.7 0 11.3-.1 17-.2 79.7-2.3 157.2-20.3 230.3-53.7 73.1-33.4 137.5-80.1 191.4-138.9 52-56.7 92.1-122.3 119.1-194.7 27-72.5 39.6-148.2 37.4-225.2-2.3-79.7-20.3-157.2-53.7-230.3-33.4-73.1-80.1-137.5-138.9-191.4-56.7-52-122.3-92.1-194.7-119.1-72.5-27-148.2-39.6-225.2-37.4C547 744 469.5 762 396.4 795.4l-.2-.6z" class="st15"/>
      <g>
        <linearGradient id="SVGID_16_" x1="1173.4153" x2="2017.2177" y1="1324.1254" y2="480.323" gradientUnits="userSpaceOnUse">
          <stop offset="0" style="stop-color:#737DDB"/>
          <stop offset="1" style="stop-color:#E12CE1"/>
        </linearGradient>
        <path d="M1595.4 1498.9c-71.2 0-141.3-12.7-208.5-37.7-72.6-27.1-138.2-67.2-195.1-119.3-58.8-54-105.6-118.5-139.1-191.7-33.5-73.2-51.6-150.9-53.8-230.7-2.2-77.1 10.4-153 37.5-225.6s67.2-138.2 119.3-195.1c54-58.8 118.5-105.6 191.7-139.1l.2.5-.2-.5c73.2-33.5 150.9-51.6 230.7-53.8 77.1-2.2 153 10.4 225.6 37.5s138.2 67.2 195.1 119.3c58.8 54 105.6 118.5 139.1 191.7 33.5 73.2 51.6 150.9 53.8 230.7 2.2 77.1-10.4 153-37.5 225.6s-67.2 138.2-119.3 195.1c-54 58.8-118.5 105.6-191.7 139.1-73.2 33.5-150.9 51.6-230.7 53.8-5.7.1-11.4.2-17.1.2zm-.2-1192.3c-5.7 0-11.3.1-17 .2-79.7 2.3-157.2 20.3-230.3 53.7-73.1 33.4-137.5 80.1-191.4 138.9-52 56.7-92.1 122.3-119.1 194.7-27 72.5-39.6 148.2-37.4 225.2 2.3 79.7 20.3 157.2 53.7 230.3 33.4 73.1 80.1 137.5 138.9 191.4 56.7 52 122.3 92.1 194.7 119.1 67.1 25 137.1 37.7 208.2 37.7 5.7 0 11.3-.1 17-.2 79.7-2.3 157.2-20.3 230.3-53.7 73.1-33.4 137.5-80.1 191.4-138.9 52-56.7 92.1-122.3 119.1-194.7 27-72.5 39.6-148.2 37.4-225.2-2.3-79.7-20.3-157.2-53.7-230.3-33.4-73.1-80.1-137.5-138.9-191.4-56.7-52-122.3-92.1-194.7-119.1-67.1-25.1-137.1-37.7-208.2-37.7z" class="st16"/>
      </g>
    </g>
  </g>
  <ellipse cx="1373" cy="1266.5" class="st17" rx="73.6" ry="73.6" transform="rotate(-60.086 1373.09369695 1266.50365745)"/>
  <ellipse cx="1373.1" cy="974.9" class="st18" rx="73.6" ry="73.6" transform="rotate(-60.086 1373.10733115 974.85291314)"/>
  <ellipse cx="866.1" cy="974.9" class="st19" rx="73.6" ry="73.6" transform="rotate(-60.086 866.09185736 974.84615608)"/>
  <ellipse cx="866.1" cy="1266.5" class="st20" rx="73.6" ry="73.6" transform="rotate(-29.911 866.03808749 1266.43547875)"/>
  <circle cx="1120.5" cy="1413.3" r="73.6" class="st21"/>
  <circle cx="1119.5" cy="825.2" r="73.6" class="st22"/>
  <path d="M887.9 984.5l8.1-24c.4-1.2.1-1.8-.2-2.2-.8-1.2-2.6-1.1-2.9-1.1h-45.8l-1.2-6.1c-.3-1.4-1.3-3-3.3-3h-12.9c-1.3 0-2.2 1.3-2.2 2.6v3.3c0 1.2.9 1.1 2.2 1.1h10.9l8.3 35.5c-1.3 1.4-2 3.5-2 5.4 0 4.2 3.3 7.6 7.6 7.6 4 0 7-3.5 7.5-6.5h16.2c.5 3 2.9 6.6 7.5 6.6 4.2 0 7.6-3.3 7.6-7.5s-2.5-7.9-7.5-7.9c-2.1 0-4.6-.2-5.7 2.8h-19.9c-1.4-3-3.4-3.2-5.4-3.3l-.3-1.7h30.3c2.3-.1 2.7-.5 3.1-1.6zm-36.3 11.8c0-1.6 1.3-2.9 2.9-2.9 1.6 0 2.9 1.3 2.9 2.9 0 1.6-1.3 2.9-2.9 2.9-1.6-.1-2.9-1.4-2.9-2.9zm34.2 2.8c-1.6 0-2.9-1.3-2.9-2.9s1.3-2.9 2.9-2.9c1.6 0 2.9 1.3 2.9 2.9 0 1.6-1.3 2.9-2.9 2.9zM1151.1 810s.1 0 0 0v-.4c0-.1 0-.3-.1-.4 0-.1-.1-.2-.2-.3-.1-.1-.1-.2-.2-.3l-.3-.3-.2-.2-29.6-15.1c-.1 0-.1 0-.2-.1s-.3-.1-.4-.1h-.8c-.1 0-.3.1-.4.1-.1 0-.1 0-.2.1l-29.6 15.1c-.1 0-.1.1-.2.2l-.3.3c-.1.1-.1.2-.2.3-.1.1-.1.2-.2.3 0 .1-.1.3-.1.4 0 .1-.1.2-.1.3v.1c0 .1 0 .3.1.4 0 .1.1.3.1.4v.1l.1.1c.1.2.3.4.5.6.1.1.1.1.2.1.3.1.6.2.9.2h59.1c.3 0 .7-.1.9-.2.1 0 .1-.1.2-.1.2-.2.4-.3.5-.6l.1-.1v-.1c.1-.1.1-.3.1-.4.5-.1.5-.2.5-.4zM1114.3 841.9c0 1.1 1 2 2.1 2h6.3c1.1 0 2.1-.9 2.1-2 0-.9-.3-1.6-1.3-1.9v-18.7c1-.3 1.3-1.2 1.3-2.1 0-1.1-1-2.3-2.1-2.3h-6.3c-1.1 0-2.1 1.1-2.1 2.3 0 .9.3 1.8 1.3 2.1V840c-1.1.4-1.3 1.1-1.3 1.9zM1096.5 841.9c0 1.1 1.1 2 2.3 2h6.3c1.1 0 1.9-.9 1.9-2 0-.9-.4-1.6-1.4-1.9v-18.7c1-.3 1.4-1.2 1.4-2.1 0-1.1-.8-2.3-1.9-2.3h-6.3c-1.1 0-2.3 1.1-2.3 2.3 0 .9 1.1 1.8 1.1 2.1V840c-.1.4-1.1 1.1-1.1 1.9zM1132.1 841.9c0 1.1.8 2 1.9 2h6.3c1.1 0 2.3-.9 2.3-2 0-.9-1.1-1.6-1.1-1.9v-18.7c0-.3 1.1-1.2 1.1-2.1 0-1.1-1.1-2.3-2.3-2.3h-6.3c-1.1 0-1.9 1.1-1.9 2.3 0 .9.4 1.8 1.4 2.1V840c-1 .4-1.4 1.1-1.4 1.9zM1151.5 856c0 1.1-.9 2-2 2h-59c-1.1 0-2-.9-2-2v-5c0-1.1.9-2 2-2h59c1.1 0 2 .9 2 2v5z" class="st23"/>
  <path d="M1094.5 817h50v4h-50zM1094.5 839h50v5h-50z" class="st23"/>
  <path d="M877.7 1231.5l-42.1 17.7c-1.2.4-2 1.6-2 2.8v34.6c0 2.1 2.4 3.6 4.3 2.8l41.9-17.7c1.2-.4 1.8-1.6 1.8-2.8v-34.6c-.1-2.1-1.9-3.5-3.9-2.8z" class="st24"/>
  <path d="M895.5 1253c0-1.7-1.3-3-3-3h-56c-1.7 0-3 1.3-3 3v35c0 1.7 1.3 3 3 3h56c1.7 0 3-1.3 3-3v-35zm-9.5 21.4c-2.2 0-3.9-1.8-3.9-3.9 0-2.2 1.8-3.9 3.9-3.9s3.9 1.8 3.9 3.9c.1 2.1-1.7 3.9-3.9 3.9zM1143.5 1381.1c0-3.4-2.7-6.1-6.1-6.1h-33.8c-3.4 0-6.1 2.7-6.1 6.1v69.8c0 3.4 2.7 6.1 6.1 6.1h33.8c3.4 0 6.1-2.7 6.1-6.1v-69.8z" class="st23"/>
  <path d="M1100.5 1388h40v56h-40z" class="st21"/>
  <circle cx="1120.3" cy="1449.1" r="3.4" class="st21"/>
  <path d="M1113.5 1380h14v3h-14zM1150.5 1386.6s4-5 0-5c-3 0-3 5 0 5 0 0-3 0 0 0z" class="st21"/>
  <g class="st0">
    <circle cx="1119.5" cy="1140.2" r="246" class="st25"/>
  </g>
  <g>
    <path d="M1415.5 1004c0 1.7-1.3 3-3 3h-79c-1.7 0-3-1.3-3-3v-60c0-1.7 1.3-3 3-3h79c1.7 0 3 1.3 3 3v60z" class="st23"/>
    <circle cx="1336.1" cy="946.1" r="2.5" class="st18"/>
    <circle cx="1344" cy="946.1" r="2.5" class="st18"/>
    <circle cx="1352" cy="946.1" r="2.5" class="st18"/>
  </g>
  <g>
    <circle cx="1119.5" cy="1119.5" r="246" class="st23"/>
  </g>
  <g>
    <path d="M1338.5 958h36v35h-36zM1380.5 958h27v7h-27zM1380.5 986h27v7h-27zM1380.5 972h27v7h-27z" class="st18"/>
  </g>
  <g id="layer1" transform="translate(0 -540.36218)">
    <path id="rect3000" d="M1373.4 1777.7h-3.3c-5.9.1-11.9.2-17.8 1.1-2 1-3.1 3.3-4.3 5.1-2.3 3.8-3.4 8.2-4.6 12.5-.5.6-.9 1.4-1.5 1.9-.5-.1 0-1.3-.1-1.9.3-1.8-1.8-2.8-3.3-2.2-1.5.6-3.7.7-4.3 2.5 0 2 2 3.5 3.9 3.2.9.1 1.3 1.2 1.8 1.8 0 3.2-.7 6.4-.5 9.7.1 2-.1 4.2.5 6.2.2.2.5.2.6.2v17c0 .7.5 1.6 1.2 1.6h5.5c.7 0 1.3-.9 1.3-1.6v-5.4h49v5.4c0 .7.5 1.6 1.2 1.6h5.5c.7 0 1.2-.9 1.2-1.6v-16.6c0-.1.1-.3 0-.4 1 0 .8-1.6.9-2.3.2-4.3.2-8.7-.5-12.9.1-1 1-2 1.8-2.6 1.8.1 3.9-1 4.1-2.9-.3-1.8-2.5-2.2-4-2.7-1.3-.5-3.5-.3-3.6 1.4-.1.8.4 2 0 2.5-.8-.3-1.1-1.4-1.7-2-1.1-3.9-2.1-7.9-4-11.5-1.3-2.1-2.6-4.4-4.6-5.9-3.5-.7-7.2-.6-10.7-.9-3.1-.3-6.4-.3-9.7-.3zm.8 6c5.9.1 11.8 0 17.6.6 1.9.2 2.2 2.4 3.2 3.7.9 1.9 2.1 3.8 2.3 5.9-1.6 1.2-3.8 1.4-5.6 2.2-2.4.8-5 .2-7.6.4-9.5 0-19 .1-28.4-.1-2.3-.8-4.8-1.3-7-2.3.1-2 1.3-3.9 2.1-5.8.9-1.4 1.4-3.5 3.2-4 6.7-.7 13.5-.5 20.2-.6zm-25.6 13.7c3.4.4 6.9 1.2 9.6 3.2 1 .9 1.3 2.7.6 3.8-2.3 1-5.1-.2-7.3 1.2-1.6 1-.3 3.2-1.3 4.4-1.9.4-4.1.3-5.8-.4-1.5-1.2-.7-3.5-.7-5.2.5-2.7 1.5-6.8 4.9-7zm49.2 0c2.4.3 3.5 2.9 4.1 4.9.4 2.3 1.3 4.9.2 7-1.4 1.5-3.7.8-5.5 1.1-1 .3-1.3-.7-1.3-1.5.1-1.5-.2-3.4-1.9-3.7-2-.7-4.3 0-6.3-.7-1.1-1.7 0-4.2 1.9-4.9 2.8-1.4 5.7-2.3 8.8-2.3v.1z" class="st23"/>
  </g>
  <g>
    <path d="M1063.5 1126.3l32.9 32.9 79.2-79.3" class="st23"/>
    <path d="M1096.4 1170.5l-38.6-38.6 11.3-11.3 27.3 27.3 73.6-73.6 11.3 11.3z" class="st26"/>
  </g>
</svg>
